<svg id="我的服务_健康码" data-name="我的服务/健康码" xmlns="http://www.w3.org/2000/svg" width="120" height="120" viewBox="0 0 120 120">
  <g id="银行业金融机构许可证查询" transform="translate(16.8 7.2)">
    <g id="icon">
      <rect id="矩形" width="86.4" height="105.6" rx="8.64" fill="#ffbb51"/>
      <path id="星形" d="M20.581,30.091a1.2,1.2,0,0,0-1.185,0l-6.8,3.861A2.4,2.4,0,0,1,9.06,31.383l1.571-7.66a1.2,1.2,0,0,0-.366-1.127L4.491,17.322a2.4,2.4,0,0,1,1.351-4.157l7.771-.873a1.2,1.2,0,0,0,.959-.7L17.8,4.475a2.4,2.4,0,0,1,4.371,0L25.405,11.6a1.2,1.2,0,0,0,.959.7l7.771.873a2.4,2.4,0,0,1,1.351,4.157L29.712,22.6a1.2,1.2,0,0,0-.366,1.127l1.571,7.66a2.4,2.4,0,0,1-3.536,2.569Z" transform="translate(6.412 7.541)" fill="#ffbc61" opacity="0.8" style="mix-blend-mode: multiply;isolation: isolate"/>
      <rect id="矩形备份_27" data-name="矩形备份 27" width="62.4" height="9.6" rx="4.8" transform="translate(12 58.8)" fill="#ffbc61" opacity="0.8" style="mix-blend-mode: multiply;isolation: isolate"/>
      <rect id="矩形备份_28" data-name="矩形备份 28" width="62.4" height="9.6" rx="4.8" transform="translate(12 79.2)" fill="#ffbc61" opacity="0.8" style="mix-blend-mode: multiply;isolation: isolate"/>
    </g>
  </g>
</svg>
