<svg id="icon_家政服务员信用查询" data-name="icon/家政服务员信用查询" xmlns="http://www.w3.org/2000/svg" width="120" height="120" viewBox="0 0 120 120">
  <g id="icon_家政服务员信用查询-2" data-name="icon/家政服务员信用查询">
    <g id="编组_54" data-name="编组 54" transform="translate(10 8.889)">
      <path id="路径" d="M7.118,56.942A7.248,7.248,0,0,1,0,49.824V42.706a7.248,7.248,0,0,1,7.118-7.118h5.366V7.118C12.483,3.285,16.209,0,21.353,0s8.87,3.285,8.87,7.118V35.588h5.366a7.248,7.248,0,0,1,7.118,7.118v7.118a7.248,7.248,0,0,1-7.118,7.118Z" transform="translate(28.471)" fill="#818df8"/>
      <path id="路径-2" data-name="路径" d="M98.553,56.012h-6.57S87.138,33.258,77.747,27.542s6.57,11.275,6.57,28.471H66.249c-1.687-3.6-3.415-12.38-9.549-16.492s3.354,6.209,4.074,16.492H.548A31.219,31.219,0,0,1,0,48.895,49.687,49.687,0,0,1,24.638,6.189,56.9,56.9,0,0,1,49.824,0,56.9,56.9,0,0,1,75.01,6.189c14.783,8.76,24.638,24.091,24.638,42.706A37.68,37.68,0,0,1,98.553,56.012Z" transform="translate(0 46.21)" fill="#818df8" opacity="0.6"/>
    </g>
  </g>
</svg>
