<svg id="婚姻" xmlns="http://www.w3.org/2000/svg" xmlns:xlink="http://www.w3.org/1999/xlink" width="120" height="120" viewBox="0 0 120 120">
  <defs>
    <linearGradient id="linear-gradient" x1="0.5" y1="1" x2="0.5" gradientUnits="objectBoundingBox">
      <stop offset="0" stop-color="#3ca5ff"/>
      <stop offset="1" stop-color="#1c6cfe"/>
    </linearGradient>
  </defs>
  <g id="婚姻-2" data-name="婚姻">
    <g id="icon_h婚姻">
      <g id="ico婚姻" transform="translate(10.053 17.362)">
        <g id="编组_38" data-name="编组 38">
          <g id="婚姻预约" transform="translate(0 0)">
            <path id="路径" d="M53.679,59.894a49.342,49.342,0,0,1-5.5-1.9q-3.828-1.727-4.944-4.013a9.08,9.08,0,0,1-.956-4.628l7.893-1.38a26.391,26.391,0,0,0,2.312-4.328,45.34,45.34,0,0,0,1.712-4.92,27.284,27.284,0,0,0,1-6.489,33.017,33.017,0,0,0-.2-5.661,45.971,45.971,0,0,0-1.312-6.915,48.207,48.207,0,0,0-2.512-7.088A27.346,27.346,0,0,0,47.3,6.268a18.875,18.875,0,0,0-5.421-4.541A14.211,14.211,0,0,0,34.864,0c-.586,0-1.142.016-1.673.047S32.1.118,31.516.174A17.31,17.31,0,0,0,25.459,1.3,18.083,18.083,0,0,0,17.13,6.355a23.317,23.317,0,0,0-4.625,7.7,34.745,34.745,0,0,0-1.952,8.988q-.4,4.707-.4,8.862a34.368,34.368,0,0,0,.8,8.168,23.053,23.053,0,0,0,1.756,4.967,8.854,8.854,0,0,0,2.548,3.2l6.857,1.119a14.749,14.749,0,0,1,0,2.121,5.3,5.3,0,0,1-.52,1.9,7.463,7.463,0,0,1-1.276,1.814,13.822,13.822,0,0,1-2.349,1.948,14.939,14.939,0,0,1-4.825,2.2,50.385,50.385,0,0,0-5.3,1.735,15.85,15.85,0,0,0-4.5,2.633c-1.3,1.1-1.314,1.524-2.709,4.41v8.552a6.667,6.667,0,0,0,6.667,6.667H56.531A6.667,6.667,0,0,0,63.2,76.667V64.638A42.61,42.61,0,0,0,53.679,59.894Z" transform="translate(-0.628 1.111)" fill="url(#linear-gradient)"/>
            <path id="形状" d="M61.909,64.917c-5.553-3.3-7.147-3.435-8.753-3.906,0,0-3.269-1.065-4.459-1.574a11.5,11.5,0,0,1-3.56-2.2,8.485,8.485,0,0,1-1.883-2.58,7.741,7.741,0,0,1-.7-2.724,10.977,10.977,0,0,1,.164-2.668,5.281,5.281,0,0,1,1.309-3.115c.656-.615,1.5-1.358,2.539-2.237a5.694,5.694,0,0,0,1.185-1.71,22.476,22.476,0,0,0,.943-2.236q.409-1.307.817-2.8a4.1,4.1,0,0,0,1.555-.959A5.891,5.891,0,0,0,52.253,34.5a8.568,8.568,0,0,0,.7-2.94,7.517,7.517,0,0,0-.041-2.364,5.987,5.987,0,0,0-.533-1.582,3.009,3.009,0,0,0-.9-1.134,61.253,61.253,0,0,0-.41-7.1,44.029,44.029,0,0,0-1.391-6.446A18.892,18.892,0,0,0,46.568,6.75,12.483,12.483,0,0,0,44.07,4.3a19.346,19.346,0,0,0-3.638-2.189A22.492,22.492,0,0,0,36.055.575,19.589,19.589,0,0,0,31.346,0a25.216,25.216,0,0,0-3.885.312A15.94,15.94,0,0,0,23.45,1.493a17.681,17.681,0,0,0-3.926,2.413,15.893,15.893,0,0,0-3.478,3.986,18.857,18.857,0,0,0-2.576,5.783,42.834,42.834,0,0,0-1.185,6.055,45.08,45.08,0,0,0-.328,6.662,5.666,5.666,0,0,0-1.066,1.837,8.56,8.56,0,0,0-.448,2.1,6.574,6.574,0,0,0,.369,2.716,7.181,7.181,0,0,0,.98,2.284,7.386,7.386,0,0,0,1.063,1.223A3.544,3.544,0,0,0,14,37.168q.414,1.5.82,2.8c.272.766.574,1.509.9,2.236a5.2,5.2,0,0,0,1.148,1.709c.928.823,1.771,1.622,2.535,2.413a5.013,5.013,0,0,1,1.308,3.2q.084,1.4.082,2.541a5.914,5.914,0,0,1-.41,2.188,7.4,7.4,0,0,1-1.308,2.109,12.875,12.875,0,0,1-2.617,2.189,17.2,17.2,0,0,1-5.074,2.276q-1.577.443-3.09.943c-.426-.162-6.122,1.566-7.254,4.74l.35,11.263a6.667,6.667,0,0,0,6.663,6.46h48.57a6.667,6.667,0,0,0,6.625-7.411Z" transform="translate(37.196 0)" fill="#2b99ff" style="mix-blend-mode: multiply;isolation: isolate"/>
          </g>
        </g>
      </g>
    </g>
  </g>
</svg>
