<svg xmlns="http://www.w3.org/2000/svg" xmlns:xlink="http://www.w3.org/1999/xlink" width="71.846" height="71.846" viewBox="0 0 71.846 71.846">
  <defs>
    <linearGradient id="linear-gradient" x1="0.5" x2="0.5" y2="1" gradientUnits="objectBoundingBox">
      <stop offset="0" stop-color="#4382eb"/>
      <stop offset="1" stop-color="#06bdfe"/>
    </linearGradient>
  </defs>
  <path id="刷新_1_" data-name="刷新 (1)" d="M199.846,134.586h0V151.35h0a5.435,5.435,0,0,1-1.8,4.191,6.468,6.468,0,0,1-4.191,1.8H177.095a5.435,5.435,0,0,1-4.191-1.8,5.788,5.788,0,0,1,0-8.382,5.435,5.435,0,0,1,4.191-1.8h2.395c-4.79-3.592-9.579-5.388-14.968-5.388-7.185,0-13.172,2.395-17.363,7.185h0a5.927,5.927,0,0,1-8.382-8.382h0A36.18,36.18,0,0,1,164.522,128a35.3,35.3,0,0,1,23.35,8.981v-2.395h0a5.435,5.435,0,0,1,1.8-4.191,5.788,5.788,0,0,1,8.382,0C199.248,130.994,199.846,132.79,199.846,134.586Zm-44.9,46.1a6.468,6.468,0,0,1-4.191,1.8h-1.8a21.455,21.455,0,0,0,14.369,5.388,21.741,21.741,0,0,0,16.764-7.185h0a5.927,5.927,0,0,1,8.382,8.382h0a33.792,33.792,0,0,1-25.146,10.777,35.3,35.3,0,0,1-23.35-8.981v2.994h0a5.435,5.435,0,0,1-1.8,4.191,5.788,5.788,0,0,1-8.382,0,6.8,6.8,0,0,1-1.8-4.79h0V176.5h0a6.139,6.139,0,0,1,5.987-5.987h16.764a5.435,5.435,0,0,1,4.191,1.8A5.788,5.788,0,0,1,154.942,180.687Z" transform="translate(-128 -128)" fill="url(#linear-gradient)"/>
</svg>
